<mxfile host="app.diagrams.net" agent="Mozilla/5.0 (Macintosh; Intel Mac OS X 10_15_7) AppleWebKit/537.36 (KHTML, like Gecko) Chrome/127.0.0.0 Safari/537.36" version="24.8.0">
  <diagram name="第 1 页" id="Qx8_TehKtRcaW05LyedT">
    <mxGraphModel dx="1084" dy="919" grid="1" gridSize="10" guides="1" tooltips="1" connect="1" arrows="1" fold="1" page="1" pageScale="1" pageWidth="827" pageHeight="1169" math="0" shadow="0">
      <root>
        <mxCell id="0" />
        <mxCell id="1" parent="0" />
        <mxCell id="pNfj8cqihsFgVl1fdg77-1" value="" style="ellipse;fillColor=strokeColor;" vertex="1" parent="1">
          <mxGeometry x="97" y="20" width="14" height="14" as="geometry" />
        </mxCell>
        <mxCell id="pNfj8cqihsFgVl1fdg77-2" value="未阅读" style="rounded=1;arcSize=40;strokeWidth=2" vertex="1" parent="1">
          <mxGeometry x="72" y="84" width="64" height="35" as="geometry" />
        </mxCell>
        <mxCell id="pNfj8cqihsFgVl1fdg77-3" value="阅读中" style="rounded=1;arcSize=40;strokeWidth=2" vertex="1" parent="1">
          <mxGeometry x="72" y="191" width="64" height="35" as="geometry" />
        </mxCell>
        <mxCell id="pNfj8cqihsFgVl1fdg77-4" value="已读" style="rounded=1;arcSize=40;strokeWidth=2" vertex="1" parent="1">
          <mxGeometry x="80" y="298" width="48" height="35" as="geometry" />
        </mxCell>
        <mxCell id="pNfj8cqihsFgVl1fdg77-5" value="收藏" style="rounded=1;arcSize=40;strokeWidth=2" vertex="1" parent="1">
          <mxGeometry x="20" y="405" width="48" height="35" as="geometry" />
        </mxCell>
        <mxCell id="pNfj8cqihsFgVl1fdg77-6" value="删除" style="rounded=1;arcSize=40;strokeWidth=2" vertex="1" parent="1">
          <mxGeometry x="140" y="405" width="48" height="35" as="geometry" />
        </mxCell>
        <mxCell id="pNfj8cqihsFgVl1fdg77-7" value="" style="curved=1;startArrow=none;;exitX=0.5;exitY=1;entryX=0.5;entryY=0;rounded=0;" edge="1" parent="1" source="pNfj8cqihsFgVl1fdg77-1" target="pNfj8cqihsFgVl1fdg77-2">
          <mxGeometry relative="1" as="geometry">
            <Array as="points" />
          </mxGeometry>
        </mxCell>
        <mxCell id="pNfj8cqihsFgVl1fdg77-8" value="用户点击查看" style="curved=1;startArrow=none;;exitX=0.5;exitY=0.99;entryX=0.5;entryY=0;rounded=0;" edge="1" parent="1" source="pNfj8cqihsFgVl1fdg77-2" target="pNfj8cqihsFgVl1fdg77-3">
          <mxGeometry relative="1" as="geometry">
            <Array as="points" />
          </mxGeometry>
        </mxCell>
        <mxCell id="pNfj8cqihsFgVl1fdg77-9" value="用户阅读完成" style="curved=1;startArrow=none;;exitX=0.5;exitY=0.99;entryX=0.5;entryY=0;rounded=0;" edge="1" parent="1" source="pNfj8cqihsFgVl1fdg77-3" target="pNfj8cqihsFgVl1fdg77-4">
          <mxGeometry relative="1" as="geometry">
            <Array as="points" />
          </mxGeometry>
        </mxCell>
        <mxCell id="pNfj8cqihsFgVl1fdg77-10" value="用户收藏新闻" style="curved=1;startArrow=none;;exitX=0.1;exitY=0.99;entryX=0.5;entryY=0;rounded=0;" edge="1" parent="1" source="pNfj8cqihsFgVl1fdg77-4" target="pNfj8cqihsFgVl1fdg77-5">
          <mxGeometry relative="1" as="geometry">
            <Array as="points">
              <mxPoint x="44" y="369" />
            </Array>
          </mxGeometry>
        </mxCell>
        <mxCell id="pNfj8cqihsFgVl1fdg77-11" value="用户删除新闻" style="curved=1;startArrow=none;;exitX=0.9;exitY=0.99;entryX=0.5;entryY=0;rounded=0;" edge="1" parent="1" source="pNfj8cqihsFgVl1fdg77-4" target="pNfj8cqihsFgVl1fdg77-6">
          <mxGeometry relative="1" as="geometry">
            <Array as="points">
              <mxPoint x="164" y="369" />
            </Array>
          </mxGeometry>
        </mxCell>
      </root>
    </mxGraphModel>
  </diagram>
</mxfile>
